<svg xmlns="http://www.w3.org/2000/svg" viewBox="0 0 1024 1024" role="img" aria-label="OpenSKS geometric mark">
  <defs>
    <linearGradient id="bg" x1="128" y1="96" x2="896" y2="928" gradientUnits="userSpaceOnUse">
      <stop offset="0" stop-color="#10151d"/>
      <stop offset="0.58" stop-color="#05070b"/>
      <stop offset="1" stop-color="#151a22"/>
    </linearGradient>
    <linearGradient id="edge" x1="248" y1="224" x2="776" y2="800" gradientUnits="userSpaceOnUse">
      <stop offset="0" stop-color="#e8fff7"/>
      <stop offset="0.44" stop-color="#5ef2d6"/>
      <stop offset="0.78" stop-color="#8b8cff"/>
      <stop offset="1" stop-color="#f1f5ff"/>
    </linearGradient>
    <linearGradient id="core" x1="296" y1="284" x2="728" y2="740" gradientUnits="userSpaceOnUse">
      <stop offset="0" stop-color="#d9fff3"/>
      <stop offset="0.5" stop-color="#71f6dc"/>
      <stop offset="1" stop-color="#7278ff"/>
    </linearGradient>
    <filter id="soft" x="-20%" y="-20%" width="140%" height="140%">
      <feDropShadow dx="0" dy="18" stdDeviation="28" flood-color="#000000" flood-opacity="0.5"/>
      <feDropShadow dx="0" dy="0" stdDeviation="18" flood-color="#56ffe1" flood-opacity="0.25"/>
    </filter>
  </defs>
  <rect x="64" y="64" width="896" height="896" rx="216" fill="url(#bg)"/>
  <path d="M512 146 816 322v380L512 878 208 702V322Z" fill="none" stroke="#2b3440" stroke-width="34"/>
  <g filter="url(#soft)" stroke-linejoin="round" stroke-linecap="round">
    <path d="M512 214 744 348 620 420 512 358 404 420 280 348Z" fill="#151b25" stroke="url(#edge)" stroke-width="36"/>
    <path d="M280 348 404 420v164l108 62v144L280 656Z" fill="#0d121a" stroke="url(#edge)" stroke-width="36"/>
    <path d="M744 348 620 420v164l-108 62v144l232-134Z" fill="#131827" stroke="url(#edge)" stroke-width="36"/>
    <path d="M404 420 512 358l108 62-108 64Z" fill="url(#core)" stroke="#ecfffb" stroke-width="20"/>
    <path d="M404 584 512 646l108-62" fill="none" stroke="#ecfffb" stroke-width="26"/>
  </g>
  <circle cx="512" cy="512" r="72" fill="#06080d" stroke="#f5fffb" stroke-width="24"/>
  <path d="M478 512h68M512 478v68" stroke="#68f6df" stroke-width="26" stroke-linecap="round"/>
</svg>
